<svg width="156" height="26" viewBox="0 0 143 22" fill="none" xmlns="http://www.w3.org/2000/svg">
<path d="M15.1196 3.8805L14.166 5.0569L13.4586 3.71801C13.019 2.88621 12.3416 2.19737 11.5077 1.73797C10.6737 1.2785 9.72072 1.06922 8.76627 1.137L8.7551 1.13779L8.74392 1.13833C7.96115 1.17633 7.19463 1.36993 6.49039 1.70712C5.78616 2.0443 5.15907 2.51791 4.64632 3.09887C4.13358 3.67983 3.74564 4.35619 3.50505 5.0872C3.26523 5.81587 3.17658 6.58439 3.24412 7.34714C3.57106 10.4478 5.29333 12.8296 7.57516 15.1388C9.59294 17.0989 11.8407 18.8147 14.271 20.2497L14.2885 20.2601L14.3055 20.2711C14.3205 20.2808 14.3379 20.2877 14.3568 20.2909C17.8181 18.2203 20.9332 15.8622 23.2802 12.702C24.807 10.6365 25.6926 8.49593 25.4311 6.02652C25.2756 4.92573 24.7966 3.89227 24.0514 3.05418C23.3028 2.21218 22.3182 1.60449 21.2193 1.30876L21.2193 1.30879L21.212 1.30677C19.238 0.759497 16.6576 1.45571 15.5621 3.29489C15.4595 3.4739 15.3062 3.65692 15.1939 3.79087C15.1662 3.82402 15.1409 3.85417 15.1196 3.8805Z" stroke="#36563D" stroke-width="2"/>
<path d="M43.3741 3.8805L42.4206 5.0569L41.7131 3.71801C41.2736 2.88621 40.5961 2.19737 39.7623 1.73797C38.9283 1.2785 37.9753 1.06922 37.0208 1.137L37.0097 1.13779L36.9985 1.13833C36.2157 1.17633 35.4492 1.36993 34.745 1.70712C34.0407 2.0443 33.4136 2.51791 32.9009 3.09887C32.3882 3.67983 32.0002 4.35619 31.7596 5.0872C31.5198 5.81587 31.4312 6.58439 31.4987 7.34714C31.8256 10.4478 33.5479 12.8296 35.8297 15.1388C37.8475 17.0989 40.0953 18.8147 42.5255 20.2497L42.543 20.2601L42.5601 20.2711C42.5751 20.2808 42.5925 20.2877 42.6113 20.2909C46.0727 18.2203 49.1878 15.8622 51.5348 12.702C53.0616 10.6365 53.9472 8.49593 53.6857 6.02652C53.5301 4.92573 53.0512 3.89227 52.306 3.05418C51.5574 2.21218 50.5727 1.60449 49.4738 1.30876L49.4738 1.30879L49.4666 1.30677C47.4925 0.759497 44.9121 1.45571 43.8167 3.29489C43.7141 3.4739 43.5608 3.65692 43.4485 3.79087C43.4208 3.82402 43.3955 3.85417 43.3741 3.8805Z" stroke="#36563D" stroke-width="2"/>
<path d="M71.6287 3.8805L70.6752 5.0569L69.9677 3.71801C69.5282 2.88621 68.8507 2.19737 68.0169 1.73797C67.1829 1.2785 66.2299 1.06922 65.2754 1.137L65.2643 1.13779L65.2531 1.13833C64.4703 1.17633 63.7038 1.36993 62.9995 1.70712C62.2953 2.0443 61.6682 2.51791 61.1555 3.09887C60.6427 3.67983 60.2548 4.35619 60.0142 5.0872C59.7744 5.81587 59.6857 6.58439 59.7533 7.34714C60.0802 10.4478 61.8025 12.8296 64.0843 15.1388C66.1021 17.0989 68.3499 18.8147 70.7801 20.2497L70.7976 20.2601L70.8147 20.2711C70.8296 20.2808 70.8471 20.2877 70.8659 20.2909C74.3273 18.2203 77.4423 15.8622 79.7894 12.702C81.3162 10.6365 82.2018 8.49593 81.9403 6.02652C81.7847 4.92573 81.3058 3.89227 80.5606 3.05418C79.8119 2.21218 78.8273 1.60449 77.7284 1.30876L77.7284 1.30879L77.7211 1.30677C75.7471 0.759497 73.1667 1.45571 72.0713 3.29489C71.9687 3.4739 71.8153 3.65692 71.7031 3.79087C71.6753 3.82402 71.6501 3.85417 71.6287 3.8805Z" stroke="#36563D" stroke-width="2"/>
<path d="M99.8833 3.8805L98.9298 5.0569L98.2223 3.71801C97.7828 2.88621 97.1053 2.19737 96.2714 1.73797C95.4375 1.2785 94.4845 1.06922 93.53 1.137L93.5188 1.13779L93.5077 1.13833C92.7249 1.17633 91.9584 1.36993 91.2541 1.70712C90.5499 2.0443 89.9228 2.51791 89.4101 3.09887C88.8973 3.67983 88.5094 4.35619 88.2688 5.0872C88.029 5.81587 87.9403 6.58439 88.0079 7.34714C88.3348 10.4478 90.0571 12.8296 92.3389 15.1388C94.3567 17.0989 96.6045 18.8147 99.0347 20.2497L99.0522 20.2601L99.0693 20.2711C99.0842 20.2808 99.1016 20.2877 99.1205 20.2909C102.582 18.2203 105.697 15.8622 108.044 12.702C109.571 10.6365 110.456 8.49593 110.195 6.02652C110.039 4.92573 109.56 3.89227 108.815 3.05418C108.067 2.21218 107.082 1.60449 105.983 1.30876L105.983 1.30879L105.976 1.30677C104.002 0.759497 101.421 1.45571 100.326 3.29489C100.223 3.4739 100.07 3.65692 99.9577 3.79087C99.9299 3.82402 99.9046 3.85417 99.8833 3.8805Z" stroke="#36563D" stroke-width="2"/>
<path d="M128.138 3.8805L127.184 5.0569L126.477 3.71801C126.037 2.88621 125.36 2.19737 124.526 1.73797C123.692 1.2785 122.739 1.06922 121.785 1.137L121.773 1.13779L121.762 1.13833C120.979 1.17633 120.213 1.36993 119.509 1.70712C118.804 2.0443 118.177 2.51791 117.665 3.09887C117.152 3.67983 116.764 4.35619 116.523 5.0872C116.284 5.81587 116.195 6.58439 116.262 7.34714C116.589 10.4478 118.312 12.8296 120.593 15.1388C122.611 17.0989 124.859 18.8147 127.289 20.2497L127.307 20.2601L127.324 20.2711C127.339 20.2808 127.356 20.2877 127.375 20.2909C130.836 18.2203 133.951 15.8622 136.299 12.702C137.825 10.6365 138.711 8.49593 138.449 6.02652C138.294 4.92573 137.815 3.89227 137.07 3.05418C136.321 2.21218 135.336 1.60449 134.238 1.30876L134.238 1.30879L134.23 1.30677C132.256 0.759497 129.676 1.45571 128.58 3.29489C128.478 3.4739 128.324 3.65692 128.212 3.79087C128.184 3.82402 128.159 3.85417 128.138 3.8805Z" stroke="#36563D" stroke-width="2"/>
</svg>
