<svg width="156" height="26" viewBox="0 0 143 22" fill="none" xmlns="http://www.w3.org/2000/svg">
<path d="M14.3427 3.25082C13.8113 2.2452 12.9936 1.41491 11.9903 0.862103C10.9869 0.309293 9.84161 0.058121 8.69544 0.139507C7.78003 0.183941 6.88315 0.410356 6.05854 0.805171C5.23393 1.19999 4.49856 1.75507 3.89656 2.43716C3.29457 3.11924 2.83833 3.91425 2.55518 4.77457C2.27203 5.6349 2.16782 6.5428 2.24878 7.44383C2.60979 10.8924 4.53089 13.482 6.87102 15.8489C8.94773 17.8674 11.2613 19.6339 13.7625 21.1108C13.9009 21.2003 14.0575 21.2587 14.2213 21.2818C14.385 21.3049 14.5519 21.2921 14.7101 21.2445C18.288 19.1193 21.5888 16.657 24.0836 13.2975C25.7017 11.1087 26.7267 8.71638 26.4238 5.90408C26.2431 4.60067 25.6779 3.37849 24.7987 2.3897C23.9196 1.40091 22.7651 0.689193 21.4791 0.343117C19.1841 -0.29315 16.0769 0.463992 14.6973 2.79273C14.6264 2.91998 14.5232 3.02813 14.3427 3.25082Z" fill="#36563D"/>
<path d="M42.5973 3.25082C42.0659 2.2452 41.2482 1.41491 40.2448 0.862103C39.2415 0.309293 38.0962 0.058121 36.95 0.139507C36.0346 0.183941 35.1377 0.410356 34.3131 0.805171C33.4885 1.19999 32.7531 1.75507 32.1511 2.43716C31.5491 3.11924 31.0929 3.91425 30.8098 4.77457C30.5266 5.6349 30.4224 6.5428 30.5034 7.44383C30.8644 10.8924 32.7855 13.482 35.1256 15.8489C37.2023 17.8674 39.5159 19.6339 42.0171 21.1108C42.1555 21.2003 42.3121 21.2587 42.4758 21.2818C42.6396 21.3049 42.8065 21.2921 42.9647 21.2445C46.5426 19.1193 49.8433 16.657 52.3382 13.2975C53.9563 11.1087 54.9813 8.71638 54.6783 5.90408C54.4976 4.60067 53.9325 3.37849 53.0533 2.3897C52.1741 1.40091 51.0197 0.689193 49.7337 0.343117C47.4387 -0.29315 44.3314 0.463992 42.9519 2.79273C42.8809 2.91998 42.7778 3.02813 42.5973 3.25082Z" fill="#36563D"/>
<path d="M70.8519 3.25082C70.3205 2.2452 69.5028 1.41491 68.4994 0.862103C67.496 0.309293 66.3508 0.058121 65.2046 0.139507C64.2892 0.183941 63.3923 0.410356 62.5677 0.805171C61.7431 1.19999 61.0077 1.75507 60.4057 2.43716C59.8037 3.11924 59.3475 3.91425 59.0643 4.77457C58.7812 5.6349 58.677 6.5428 58.7579 7.44383C59.1189 10.8924 61.04 13.482 63.3802 15.8489C65.4569 17.8674 67.7704 19.6339 70.2717 21.1108C70.41 21.2003 70.5666 21.2587 70.7304 21.2818C70.8942 21.3049 71.0611 21.2921 71.2193 21.2445C74.7972 19.1193 78.0979 16.657 80.5928 13.2975C82.2109 11.1087 83.2359 8.71638 82.9329 5.90408C82.7522 4.60067 82.1871 3.37849 81.3079 2.3897C80.4287 1.40091 79.2743 0.689193 77.9883 0.343117C75.6933 -0.29315 72.586 0.463992 71.2064 2.79273C71.1355 2.91998 71.0324 3.02813 70.8519 3.25082Z" fill="#36563D"/>
<path d="M99.1065 3.25082C98.5751 2.2452 97.7574 1.41491 96.754 0.862103C95.7506 0.309293 94.6053 0.058121 93.4592 0.139507C92.5438 0.183941 91.6469 0.410356 90.8223 0.805171C89.9977 1.19999 89.2623 1.75507 88.6603 2.43716C88.0583 3.11924 87.6021 3.91425 87.3189 4.77457C87.0358 5.6349 86.9316 6.5428 87.0125 7.44383C87.3735 10.8924 89.2946 13.482 91.6348 15.8489C93.7115 17.8674 96.025 19.6339 98.5262 21.1108C98.6646 21.2003 98.8212 21.2587 98.985 21.2818C99.1488 21.3049 99.3157 21.2921 99.4739 21.2445C103.052 19.1193 106.352 16.657 108.847 13.2975C110.465 11.1087 111.49 8.71638 111.187 5.90408C111.007 4.60067 110.442 3.37849 109.562 2.3897C108.683 1.40091 107.529 0.689193 106.243 0.343117C103.948 -0.29315 100.841 0.463992 99.461 2.79273C99.3901 2.91998 99.287 3.02813 99.1065 3.25082Z" fill="#36563D"/>
<path d="M127.361 3.25082C126.83 2.2452 126.012 1.41491 125.009 0.862103C124.005 0.309293 122.86 0.058121 121.714 0.139507C120.798 0.183941 119.901 0.410356 119.077 0.805171C118.252 1.19999 117.517 1.75507 116.915 2.43716C116.313 3.11924 115.857 3.91425 115.573 4.77457C115.29 5.6349 115.186 6.5428 115.267 7.44383C115.628 10.8924 117.549 13.482 119.889 15.8489C121.966 17.8674 124.28 19.6339 126.781 21.1108C126.919 21.2003 127.076 21.2587 127.24 21.2818C127.403 21.3049 127.57 21.2921 127.728 21.2445C131.306 19.1193 134.607 16.657 137.102 13.2975C138.72 11.1087 139.745 8.71638 139.442 5.90408C139.261 4.60067 138.696 3.37849 137.817 2.3897C136.938 1.40091 135.783 0.689193 134.497 0.343117C132.202 -0.29315 129.095 0.463992 127.716 2.79273C127.645 2.91998 127.542 3.02813 127.361 3.25082Z" fill="#36563D"/>
</svg>
