<svg xmlns="http://www.w3.org/2000/svg" viewBox="0 0 504 504" width="20" height="20">
  <path fill="#212121" d="M503 193c-2-8-10-14-18-16l-146-22-66-132c-4-8-12-13-21-13s-17 5-21 13l-66 133-146 21c-9 2-16 7-18 16-2 8-1 18 5 24l106 103-25 146c-2 9 2 18 9 22 7 5 17 6 24 2l131-69 130 69c4 2 8 2 11 2 5 0 10-2 14-4 7-5 10-14 9-22l-25-146 106-103c6-6 8-16 6-24z"/>
  <path fill="#424242" d="M136 481l115-60 116 60-116-115zm367-288c-2-8-10-14-18-16l-146-22-66-132c-4-8-12-13-21-13s-17 5-21 13l-66 133-66 9 314 314c2-4 3-9 2-14l-25-146 106-103c6-6 8-16 6-24z"/>
  
  <path fill="#187fd2" d="M251 11c-8 1-16 5-20 13l-66 133-146 21c-9 2-16 7-18 16-2 8-1 18 5 24l106 103-25 146c-2 9 2 18 9 22 7 5 17 6 25 2l130-68V11z"/>
  <path fill="#3292e0" d="M231 24l-66 133-65 9 151 150V11c-8 1-16 5-20 13zm-94 457l114-59v-54z"/>
</svg>
